<svg width="28" height="28" viewBox="0 0 28 28" fill="none" xmlns="http://www.w3.org/2000/svg">
<path d="M20.7208 14C20.7208 15.7824 20.0127 17.4918 18.7524 18.7522C17.4921 20.0125 15.7827 20.7205 14.0003 20.7205C12.2179 20.7205 10.5085 20.0125 9.24817 18.7522C7.98784 17.4918 7.27979 15.7824 7.27979 14C7.27979 12.2177 7.98784 10.5083 9.24817 9.24793C10.5085 7.98759 12.2179 7.27954 14.0003 7.27954C15.7827 7.27954 17.4921 7.98759 18.7524 9.24793C20.0127 10.5083 20.7208 12.2177 20.7208 14Z" fill="#FFC14F"/>
<path fill-rule="evenodd" clip-rule="evenodd" d="M13.9999 1.95911C14.2227 1.95911 14.4364 2.04761 14.5939 2.20516C14.7514 2.3627 14.8399 2.57637 14.8399 2.79917V3.91925C14.8399 4.14205 14.7514 4.35572 14.5939 4.51327C14.4364 4.67081 14.2227 4.75931 13.9999 4.75931C13.7771 4.75931 13.5634 4.67081 13.4059 4.51327C13.2483 4.35572 13.1598 4.14205 13.1598 3.91925V2.79917C13.1598 2.57637 13.2483 2.3627 13.4059 2.20516C13.5634 2.04761 13.7771 1.95911 13.9999 1.95911ZM5.48613 5.48625C5.64364 5.32893 5.85715 5.24057 6.07977 5.24057C6.30239 5.24057 6.5159 5.32893 6.67342 5.48625L7.11361 5.92532C7.26671 6.08369 7.35148 6.29585 7.34967 6.51611C7.34786 6.73638 7.25962 6.94712 7.10393 7.10295C6.94825 7.25877 6.73759 7.34722 6.51733 7.34924C6.29707 7.35126 6.08483 7.26668 5.92632 7.11373L5.48613 6.67354C5.32881 6.51603 5.24045 6.30251 5.24045 6.07989C5.24045 5.85728 5.32881 5.64376 5.48613 5.48625ZM22.5136 5.48625C22.6709 5.64376 22.7593 5.85728 22.7593 6.07989C22.7593 6.30251 22.6709 6.51603 22.5136 6.67354L22.0734 7.11373C21.9142 7.26212 21.7036 7.3429 21.4859 7.33906C21.2683 7.33522 21.0607 7.24706 20.9067 7.09315C20.7528 6.93923 20.6647 6.73158 20.6608 6.51395C20.657 6.29632 20.7378 6.08569 20.8862 5.92644L21.3263 5.48625C21.4839 5.32893 21.6974 5.24057 21.92 5.24057C22.1426 5.24057 22.3561 5.32893 22.5136 5.48625ZM1.95898 14C1.95898 13.7772 2.04749 13.5635 2.20503 13.406C2.36258 13.2484 2.57625 13.1599 2.79905 13.1599H3.91913C4.14193 13.1599 4.3556 13.2484 4.51314 13.406C4.67069 13.5635 4.75919 13.7772 4.75919 14C4.75919 14.2228 4.67069 14.4365 4.51314 14.594C4.3556 14.7516 4.14193 14.8401 3.91913 14.8401H2.79905C2.57625 14.8401 2.36258 14.7516 2.20503 14.594C2.04749 14.4365 1.95898 14.2228 1.95898 14ZM23.2406 14C23.2406 13.7772 23.3291 13.5635 23.4866 13.406C23.6442 13.2484 23.8578 13.1599 24.0806 13.1599H25.2007C25.4235 13.1599 25.6372 13.2484 25.7947 13.406C25.9523 13.5635 26.0408 13.7772 26.0408 14C26.0408 14.2228 25.9523 14.4365 25.7947 14.594C25.6372 14.7516 25.4235 14.8401 25.2007 14.8401H24.0806C23.8578 14.8401 23.6442 14.7516 23.4866 14.594C23.3291 14.4365 23.2406 14.2228 23.2406 14ZM20.8862 20.8863C21.0437 20.729 21.2572 20.6406 21.4798 20.6406C21.7024 20.6406 21.9159 20.729 22.0734 20.8863L22.5136 21.3265C22.5962 21.4034 22.6624 21.4961 22.7083 21.5992C22.7542 21.7022 22.7789 21.8135 22.7809 21.9262C22.7829 22.039 22.7621 22.1511 22.7199 22.2557C22.6776 22.3603 22.6147 22.4553 22.535 22.5351C22.4552 22.6149 22.3602 22.6777 22.2556 22.72C22.151 22.7622 22.0389 22.783 21.9261 22.781C21.8133 22.779 21.7021 22.7543 21.599 22.7084C21.496 22.6625 21.4033 22.5963 21.3263 22.5138L20.8862 22.0736C20.7288 21.9161 20.6405 21.7025 20.6405 21.4799C20.6405 21.2573 20.7288 21.0438 20.8862 20.8863ZM7.11361 20.8863C7.27092 21.0438 7.35929 21.2573 7.35929 21.4799C7.35929 21.7025 7.27092 21.9161 7.11361 22.0736L6.67342 22.5138C6.59651 22.5963 6.50376 22.6625 6.40072 22.7084C6.29767 22.7543 6.18643 22.779 6.07364 22.781C5.96084 22.783 5.8488 22.7622 5.7442 22.72C5.63959 22.6777 5.54457 22.6149 5.4648 22.5351C5.38503 22.4553 5.32214 22.3603 5.27989 22.2557C5.23764 22.1511 5.21689 22.039 5.21888 21.9262C5.22087 21.8135 5.24556 21.7022 5.29148 21.5992C5.33739 21.4961 5.40359 21.4034 5.48613 21.3265L5.9252 20.8863C6.00321 20.8082 6.09585 20.7463 6.1978 20.704C6.29976 20.6618 6.40904 20.64 6.5194 20.64C6.62977 20.64 6.73905 20.6618 6.84101 20.704C6.94296 20.7463 7.03559 20.8082 7.11361 20.8863ZM13.9999 23.2407C14.2227 23.2407 14.4364 23.3292 14.5939 23.4867C14.7514 23.6443 14.8399 23.858 14.8399 24.0808V25.2008C14.8399 25.4236 14.7514 25.6373 14.5939 25.7949C14.4364 25.9524 14.2227 26.0409 13.9999 26.0409C13.7771 26.0409 13.5634 25.9524 13.4059 25.7949C13.2483 25.6373 13.1598 25.4236 13.1598 25.2008V24.0808C13.1598 23.858 13.2483 23.6443 13.4059 23.4867C13.5634 23.3292 13.7771 23.2407 13.9999 23.2407Z" fill="#FFC14F"/>
</svg>
