<svg width="33" height="33" viewBox="0 0 33 33" fill="none" xmlns="http://www.w3.org/2000/svg">
<path d="M20.625 2.75C20.9755 2.75039 21.3125 2.88458 21.5674 3.12517C21.8222 3.36575 21.9756 3.69456 21.9961 4.04442C22.0167 4.39428 21.9028 4.73877 21.6779 5.00752C21.4529 5.27627 21.1339 5.44898 20.7859 5.49038L20.625 5.5C19.6721 5.5 18.7963 6.45425 18.2999 7.634C19.1481 7.20231 20.0754 6.94781 21.0251 6.886L21.3895 6.875C25.4897 6.875 28.875 11.0729 28.875 15.565C28.875 20.4421 28.0417 23.6253 25.5434 27.3598C23.2169 30.4549 19.9169 31.1451 16.7296 29.0565C16.6649 29.0152 16.5903 28.9921 16.5136 28.9897C16.4369 28.9872 16.3609 29.0056 16.2938 29.0427C13.0831 31.1437 9.78312 30.4549 7.41125 27.2965C4.95962 23.628 4.125 20.4435 4.125 15.565L4.1305 15.2597C4.279 10.8859 7.60375 6.875 11.6105 6.875C12.903 6.875 14.157 7.27512 15.3065 7.964C15.8826 5.28275 17.8062 2.75 20.625 2.75ZM10.9532 11.2118C9.08325 12.3915 8.25 14.0442 8.25 16.5C8.25 16.8647 8.39487 17.2144 8.65273 17.4723C8.91059 17.7301 9.26033 17.875 9.625 17.875C9.98967 17.875 10.3394 17.7301 10.5973 17.4723C10.8551 17.2144 11 16.8647 11 16.5C11 14.9531 11.385 14.1927 12.4218 13.5382C12.7303 13.3435 12.9488 13.0342 13.0292 12.6783C13.1097 12.3225 13.0455 11.9493 12.8507 11.6407C12.656 11.3322 12.3467 11.1137 11.9908 11.0333C11.635 10.9528 11.2618 11.017 10.9532 11.2118Z" fill="#FF5656"/>
</svg>
