<svg width="20" height="22" viewBox="0 0 20 22" fill="none" xmlns="http://www.w3.org/2000/svg">
<path d="M10 2.35371e-07C12.2105 -0.000206746 14.3341 0.860723 15.9204 2.40017C17.5067 3.93963 18.4309 6.03649 18.497 8.246L18.501 8.501V13.113L19.915 16.757C19.953 16.8557 19.9787 16.9573 19.992 17.062L20.002 17.22C20.0019 17.5369 19.8843 17.8425 19.6718 18.0777C19.4594 18.3128 19.1673 18.4608 18.852 18.493L18.722 18.5L13.502 18.501C13.4987 19.411 13.1414 20.284 12.5057 20.9351C11.8699 21.5861 11.0057 21.9642 10.0961 21.9892C9.18642 22.0141 8.30278 21.684 7.6323 21.0688C6.96181 20.4535 6.55715 19.6014 6.504 18.693L6.498 18.499L1.275 18.5C1.07782 18.5002 0.883269 18.4547 0.706526 18.3673C0.529783 18.2799 0.375627 18.1528 0.256082 17.996C0.136538 17.8392 0.0548386 17.6569 0.0173568 17.4633C-0.020125 17.2697 -0.0123756 17.0701 0.0400008 16.88L0.0820006 16.756L1.498 13.112V8.502C1.49774 7.38543 1.71747 6.27974 2.14464 5.24811C2.57181 4.21649 3.19806 3.27913 3.98759 2.48959C4.77713 1.70006 5.71449 1.07381 6.74612 0.646641C7.77774 0.219469 8.88343 -0.000262518 10 2.35371e-07ZM11.996 18.65L12 18.5L8 18.501C7.99769 19.0202 8.19731 19.52 8.55669 19.8948C8.91606 20.2696 9.40706 20.49 9.92594 20.5095C10.4448 20.529 10.951 20.346 11.3374 19.9992C11.7239 19.6524 11.9604 19.169 11.997 18.651M10 1.5C8.18485 1.49971 6.44056 2.20452 5.13513 3.46573C3.82971 4.72694 3.06523 6.44591 3.003 8.26L2.999 8.501V13.253C2.99849 13.315 2.99077 13.3768 2.976 13.437L2.948 13.525L1.596 17H18.4L17.052 13.526C17.0301 13.4679 17.015 13.4075 17.007 13.346L17 13.254V8.502C17.0003 7.58258 16.8194 6.67211 16.4677 5.8226C16.1161 4.97309 15.6005 4.20118 14.9505 3.55096C14.3004 2.90074 13.5287 2.38494 12.6792 2.03303C11.8298 1.68113 10.9194 1.5 10 1.5Z" fill="black"/>
</svg>
