<svg width="24" height="24" viewBox="0 0 24 24" fill="none" xmlns="http://www.w3.org/2000/svg">
<path d="M12 21.132L4.524 23.7614C3.44667 24.1408 2.42333 24.0677 1.454 23.5423C0.484667 23.0179 0 22.2848 0 21.3429V2.64252C0 1.88923 0.308666 1.26076 0.925999 0.757107C1.54333 0.253459 2.312 0.00109015 3.232 0H20.77C21.69 0 22.4587 0.252369 23.076 0.757107C23.6933 1.26185 24.0013 1.89032 24 2.64252V21.3429C24 22.2848 23.5153 23.0179 22.546 23.5423C21.5767 24.0677 20.5533 24.1408 19.476 23.7614L12 21.132ZM12 19.2956L20.27 22.2129C20.6793 22.36 21.07 22.329 21.442 22.1196C21.814 21.9092 22 21.6258 22 21.2693V2.64415C22 2.39233 21.872 2.16122 21.616 1.95082C21.36 1.74042 21.0773 1.63522 20.768 1.63522H3.232C2.924 1.63522 2.64133 1.73988 2.384 1.94918C2.12667 2.15849 1.99867 2.3896 2 2.64252V21.271C2 21.6274 2.186 21.9103 2.558 22.1196C2.93 22.329 3.32067 22.36 3.73 22.2129L12 19.2956ZM12 1.63522H2H22H12Z" fill="#0A8356" fill-opacity="0.6"/>
</svg>
