<svg width="36" height="36" viewBox="0 0 36 36" fill="none" xmlns="http://www.w3.org/2000/svg">
<path d="M21.7784 5.70445C21.8903 5.67051 21.9944 5.61446 22.0843 5.53962C22.1742 5.46478 22.2482 5.37266 22.3019 5.26872C22.3557 5.16477 22.388 5.05111 22.397 4.93446C22.406 4.81781 22.3915 4.70054 22.3544 4.58958C22.3173 4.47862 22.2583 4.37623 22.181 4.28846C22.1036 4.20069 22.0094 4.12933 21.904 4.0786C21.7986 4.02787 21.684 3.9988 21.5672 3.9931C21.4503 3.98741 21.3335 4.00521 21.2236 4.04545C19.5839 4.59145 18.5601 5.93895 17.9581 7.3827C17.8769 7.5777 17.8028 7.77558 17.7359 7.97595C17.408 7.35497 16.9886 6.78686 16.4916 6.2907C15.8184 5.61745 15.0148 5.08862 14.1302 4.73657C13.2456 4.38452 12.2984 4.21664 11.3466 4.2432C10.3316 4.2712 9.52138 5.0832 9.49338 6.09645C9.46682 7.0482 9.6347 7.99537 9.98675 8.88002C10.3388 9.76466 10.8676 10.5682 11.5409 11.2414L11.5951 11.2939C10.1249 11.6119 8.79613 12.3949 7.80576 13.5271C6.81539 14.6593 6.21608 16.0805 6.09663 17.5799L6.08613 17.7094C5.8551 20.592 6.46931 23.4795 7.85363 26.0184L8.48363 27.1699C8.49996 27.2003 8.51863 27.2294 8.53963 27.2574L10.2896 29.7109C10.6863 30.2664 11.1991 30.7288 11.7926 31.0659C12.386 31.4031 13.0458 31.6069 13.726 31.6632C14.4062 31.7195 15.0906 31.6269 15.7314 31.3919C16.3722 31.1569 16.9541 30.7852 17.4366 30.3024C17.5107 30.2283 17.5987 30.1695 17.6956 30.1294C17.7924 30.0893 17.8962 30.0686 18.001 30.0686C18.1058 30.0686 18.2096 30.0893 18.3065 30.1294C18.4033 30.1695 18.4913 30.2283 18.5654 30.3024C19.0479 30.7852 19.6298 31.1569 20.2707 31.3919C20.9115 31.6269 21.5958 31.7195 22.276 31.6632C22.9562 31.6069 23.616 31.4031 24.2094 31.0659C24.8029 30.7288 25.3158 30.2664 25.7124 29.7109L27.4624 27.2592L27.5184 27.1699L28.1466 26.0184C29.5309 23.4795 30.1452 20.592 29.9141 17.7094L29.9054 17.5799C29.8279 16.6136 29.5506 15.6738 29.0909 14.8202C28.6313 13.9667 27.9993 13.2179 27.2351 12.6213C26.4709 12.0248 25.5911 11.5934 24.6515 11.3547C23.7119 11.116 22.7329 11.075 21.7766 11.2344L18.8769 11.7174C18.8944 10.5257 19.1044 9.1852 19.5751 8.0547C20.0651 6.87345 20.7931 6.03345 21.7766 5.70445M12.5891 16.2044C12.3205 16.2894 12.0713 16.4267 11.8559 16.6084C11.6406 16.7901 11.4633 17.0127 11.3344 17.2632C11.0106 17.8722 10.7884 18.8767 10.9931 20.5164C11.0161 20.7438 10.9492 20.9711 10.8068 21.1497C10.6644 21.3284 10.4578 21.4443 10.2311 21.4726C10.0044 21.501 9.77557 21.4395 9.59357 21.3014C9.41158 21.1633 9.29083 20.9594 9.25713 20.7334C9.02438 18.8714 9.23963 17.4697 9.79088 16.4389C10.3509 15.3889 11.2031 14.8219 12.0361 14.5437C12.2564 14.4704 12.4967 14.4875 12.7043 14.5914C12.9119 14.6953 13.0697 14.8773 13.143 15.0976C13.2163 15.3178 13.1992 15.5581 13.0953 15.7657C12.9914 15.9733 12.8094 16.1311 12.5891 16.2044Z" fill="white"/>
</svg>
