<svg width="32" height="32" viewBox="0 0 32 32" fill="none" xmlns="http://www.w3.org/2000/svg">
<path d="M16 10C16.7503 10.0419 17.4867 9.78544 18.0487 9.28659C18.6106 8.78774 18.9526 8.08695 19 7.337V7.334C19.0041 6.84212 18.8518 6.36165 18.565 5.962L16 2L13.435 5.96C13.149 6.35969 12.9968 6.83956 13 7.331C13.0459 8.08165 13.3869 8.78365 13.9486 9.28372C14.5103 9.78379 15.2471 10.0413 15.998 10H16ZM22.134 23.376L20.708 22L19.268 23.375C18.3688 24.1714 17.2092 24.6111 16.008 24.6111C14.8068 24.6111 13.6472 24.1714 12.748 23.375L11.334 22L9.868 23.375C9.08479 24.0993 8.08222 24.5414 7.01923 24.6313C5.95624 24.7211 4.89367 24.4536 4 23.871V29C4 29.2652 4.10536 29.5196 4.29289 29.7071C4.48043 29.8946 4.73478 30 5 30H27C27.2652 30 27.5196 29.8946 27.7071 29.7071C27.8946 29.5196 28 29.2652 28 29V23.871C27.1064 24.4529 26.0442 24.72 24.9816 24.63C23.9191 24.54 22.9169 24.098 22.134 23.374M24 14H17.333V12H14.667V14H8C6.93545 14.0372 5.92607 14.4828 5.18129 15.2443C4.4365 16.0058 4.01349 17.0249 4 18.09V19.505C4.01704 20.1821 4.3017 20.8248 4.79164 21.2924C5.28158 21.7601 5.93686 22.0145 6.614 22C6.95374 22.0088 7.29176 21.949 7.60789 21.8243C7.92402 21.6995 8.21179 21.5124 8.454 21.274L11.334 18.564L14.147 21.274C14.6542 21.7294 15.3118 21.9813 15.9935 21.9813C16.6752 21.9813 17.3328 21.7294 17.84 21.274L20.666 18.564L23.534 21.274C23.9004 21.621 24.3583 21.8561 24.8538 21.9517C25.3493 22.0473 25.8619 21.9993 26.331 21.8135C26.8002 21.6276 27.2066 21.3116 27.5022 20.9027C27.7979 20.4937 27.9706 20.0088 28 19.505V18.09C27.9865 17.0249 27.5635 16.0058 26.8187 15.2443C26.0739 14.4828 25.0646 14.0372 24 14Z" fill="#FF7043"/>
</svg>
