<svg width="33" height="33" viewBox="0 0 33 33" fill="none" xmlns="http://www.w3.org/2000/svg">
<path d="M24.0626 3.78125C24.0626 3.50775 23.954 3.24544 23.7606 3.05205C23.5672 2.85865 23.3049 2.75 23.0314 2.75C22.7579 2.75 22.4956 2.85865 22.3022 3.05205C22.1088 3.24544 22.0001 3.50775 22.0001 3.78125V9.30187C19.2144 7.43462 15.308 8.0905 13.3472 10.9725L3.2355 25.8307C2.471 26.9555 2.61675 28.457 3.58612 29.4167C4.06512 29.8879 4.6934 30.1772 5.36276 30.2349C6.03212 30.2926 6.70066 30.1151 7.25325 29.733L22.0895 19.4631C23.4192 18.5496 24.3347 17.1483 24.6372 15.5637C24.9397 13.9791 24.6048 12.3391 23.7051 11H29.2175C29.491 11 29.7533 10.8914 29.9467 10.698C30.1401 10.5046 30.2487 10.2423 30.2487 9.96875C30.2487 9.69525 30.1401 9.43294 29.9467 9.23955C29.7533 9.04615 29.491 8.9375 29.2175 8.9375H25.5187L29.9462 4.51C30.1284 4.31451 30.2276 4.05595 30.2229 3.78878C30.2181 3.52162 30.1099 3.26671 29.921 3.07777C29.732 2.88883 29.4771 2.7806 29.21 2.77588C28.9428 2.77117 28.6842 2.87034 28.4887 3.0525L24.0626 7.47863V3.78125Z" fill="#FF9604"/>
</svg>
