<svg width="24" height="25" viewBox="0 0 24 25" fill="none" xmlns="http://www.w3.org/2000/svg">
<path d="M18.25 8.69497C17.845 8.21664 17.4288 7.7383 16.99 7.2833L16.6638 6.9683L16.8213 6.8283C17.3714 6.33855 17.7635 5.68557 17.9445 4.95748C18.1256 4.22939 18.0869 3.46122 17.8338 2.75664C17.4669 1.9621 16.886 1.29472 16.1614 0.835114C15.4367 0.375506 14.5992 0.143331 13.75 0.166636V2.49997C14.1503 2.49419 14.5448 2.59926 14.8928 2.80435C15.2409 3.00943 15.5299 3.30709 15.73 3.66664C15.9213 4.1333 15.73 4.64664 15.2013 5.19497C15.1225 5.2883 15.0325 5.34664 14.9538 5.4283C11.5788 2.61664 7.8775 1.02997 6.06625 2.9083C5.87717 3.10999 5.72134 3.34253 5.605 3.59664V3.7133L5.4025 4.33164L0.441253 19.615C0.253592 20.1909 0.200949 20.8049 0.287685 21.4062C0.37442 22.0074 0.598038 22.5786 0.940017 23.0723C1.28199 23.5661 1.73249 23.9682 2.25419 24.2455C2.77589 24.5228 3.35379 24.6671 3.94 24.6666C4.32279 24.663 4.70256 24.596 5.065 24.4683L20.5 19.16C20.6897 19.0867 20.8568 18.9618 20.9838 18.7983L21.22 18.5883C22.8288 16.9083 21.7938 13.6766 19.6338 10.5383C20.9163 9.76207 22.3931 9.40052 23.875 9.49997V7.16664C21.892 7.05349 19.9247 7.58801 18.25 8.69497ZM4.4125 22.2516C4.15714 22.3393 3.8833 22.3516 3.62157 22.2872C3.35984 22.2229 3.12052 22.0843 2.93031 21.8871C2.74011 21.6898 2.60651 21.4416 2.54443 21.1702C2.48235 20.8988 2.49423 20.6148 2.57875 20.35L4.10875 15.5666C5.20066 17.726 6.87845 19.5065 8.935 20.6883L4.4125 22.2516ZM12.2875 19.5333C10.5873 19.0664 9.03635 18.1417 7.7917 16.853C6.54706 15.5643 5.65297 13.9574 5.2 12.195L6.325 8.69497L6.3925 8.79997C6.51625 9.05664 6.67375 9.32497 6.83125 9.5933C6.98875 9.86164 7.01125 9.93164 7.12375 10.1066C7.23625 10.2816 7.495 10.6666 7.6975 10.9583C7.9 11.25 7.91125 11.285 8.035 11.4483C8.15875 11.6116 8.51875 12.09 8.7775 12.405L9.10375 12.8133C9.48625 13.2683 9.89125 13.7116 10.3188 14.1666C10.7463 14.6216 11.0838 14.9133 11.4438 15.3333L11.815 15.66L12.6925 16.395L13.1088 16.7216C13.4238 16.955 13.7275 17.1883 14.0425 17.3983L14.3913 17.6316C14.7963 17.8883 15.2013 18.1333 15.595 18.3433H15.6513L12.2875 19.5333ZM19.6112 16.9316H19.5438C18.7675 17.375 15.5388 16.2666 11.905 12.4866C11.5225 12.09 11.1625 11.705 10.8363 11.32L10.51 10.9116L9.91375 10.165L9.5875 9.6983C9.44125 9.47664 9.28375 9.26664 9.14875 9.05664L8.85625 8.56664L8.53 8.0183C8.44 7.85497 8.3725 7.7033 8.29375 7.55164C8.215 7.39997 8.125 7.2483 8.0575 7.08497C7.99636 6.94862 7.94375 6.80833 7.9 6.66497C7.84375 6.5133 7.77625 6.36164 7.73125 6.22164C7.68625 6.08164 7.675 5.99997 7.64125 5.85997C7.6075 5.71997 7.585 5.6033 7.5625 5.48664C7.55616 5.38563 7.55616 5.28431 7.5625 5.1833C7.55166 5.09031 7.55166 4.9963 7.5625 4.9033L7.68625 4.54164C8.09125 4.12164 10.195 4.54164 13.0075 6.7583C12.531 6.98208 12.0212 7.12016 11.5 7.16664V9.49997C12.695 9.42869 13.8544 9.05194 14.875 8.4033L15.415 8.93997C15.8875 9.42997 16.3263 9.93164 16.7425 10.4333C16.0985 11.6409 15.861 13.0367 16.0675 14.4L18.3175 13.945C18.2518 13.5121 18.2518 13.0712 18.3175 12.6383C18.6619 13.1776 18.9665 13.7431 19.2288 14.33C19.8588 15.87 19.8138 16.7333 19.6112 16.9316Z" fill="white"/>
</svg>
