<svg width="22" height="20" viewBox="0 0 22 20" fill="none" xmlns="http://www.w3.org/2000/svg">
<path d="M11.294 17.5904C12.0324 17.5399 12.7646 17.422 13.4815 17.2381C14.367 17.5043 15.3015 17.5645 16.2138 17.4143C16.2502 17.4098 16.2868 17.4071 16.3235 17.4061C16.649 17.4061 17.076 17.5928 17.699 17.9859V17.3396C17.6993 17.227 17.7297 17.1165 17.7872 17.0197C17.8446 16.9228 17.927 16.8431 18.0257 16.7889C18.2971 16.6357 18.5479 16.4634 18.7782 16.2721C19.6858 15.5138 20.198 14.5011 20.198 13.4301C20.198 13.0766 20.142 12.7243 20.0312 12.3883C20.3065 11.8819 20.5258 11.3534 20.6892 10.8028C21.2142 11.5786 21.4965 12.4944 21.5 13.4301C21.5 14.8861 20.814 16.2441 19.6252 17.2369C19.4261 17.4026 19.218 17.555 19.001 17.6943V19.2086C19.001 19.7289 18.392 20.0288 17.9627 19.7184C17.5559 19.4191 17.1354 19.1388 16.7027 18.8784C16.5776 18.8063 16.4483 18.742 16.3153 18.6859C15.9542 18.7394 15.5896 18.7663 15.2245 18.7664C13.7428 18.7664 12.3732 18.3266 11.294 17.5904ZM3.45283 14.5629C1.5815 12.9961 0.5 10.8599 0.5 8.57093C0.5 3.89493 4.97067 0.155762 10.4295 0.155762C15.8895 0.155762 20.3613 3.89376 20.3613 8.57093C20.3613 13.2469 15.8895 16.9849 10.4295 16.9849C9.81583 16.9849 9.21111 16.9383 8.61533 16.8449C8.35867 16.9044 7.32967 17.5076 5.848 18.5751C5.31133 18.9624 4.55067 18.5891 4.55067 17.9369V15.3551C4.16639 15.1175 3.79987 14.8524 3.454 14.5618M8.6515 15.2524C8.69661 15.2524 8.74211 15.2559 8.788 15.2629C9.32467 15.3516 9.87183 15.3963 10.4295 15.3971C15.0413 15.3971 18.7315 12.3113 18.7315 8.56976C18.7315 4.82943 15.0413 1.74359 10.4307 1.74359C5.82 1.74359 2.1275 4.83176 2.1275 8.57093C2.1275 10.3793 2.99083 12.0826 4.5145 13.3578C4.89872 13.6782 5.31717 13.966 5.76983 14.2211C5.89263 14.2892 5.99513 14.3888 6.06687 14.5095C6.13861 14.6302 6.17702 14.7678 6.17817 14.9083V16.3969C7.35067 15.6211 8.12183 15.2524 8.6515 15.2524Z" fill="#0A8356" fill-opacity="0.6"/>
<path d="M6.40576 10C6.75386 10 7.0877 9.86172 7.33384 9.61558C7.57998 9.36944 7.71826 9.0356 7.71826 8.6875C7.71826 8.3394 7.57998 8.00556 7.33384 7.75942C7.0877 7.51328 6.75386 7.375 6.40576 7.375C6.05767 7.375 5.72383 7.51328 5.47768 7.75942C5.23154 8.00556 5.09326 8.3394 5.09326 8.6875C5.09326 9.0356 5.23154 9.36944 5.47768 9.61558C5.72383 9.86172 6.05767 10 6.40576 10ZM10.6723 10C11.0204 10 11.3542 9.86172 11.6003 9.61558C11.8465 9.36944 11.9848 9.0356 11.9848 8.6875C11.9848 8.3394 11.8465 8.00556 11.6003 7.75942C11.3542 7.51328 11.0204 7.375 10.6723 7.375C10.3242 7.375 9.99033 7.51328 9.74418 7.75942C9.49804 8.00556 9.35976 8.3394 9.35976 8.6875C9.35976 9.0356 9.49804 9.36944 9.74418 9.61558C9.99033 9.86172 10.3242 10 10.6723 10ZM14.9376 10C15.2857 10 15.6195 9.86172 15.8657 9.61558C16.1118 9.36944 16.2501 9.0356 16.2501 8.6875C16.2501 8.3394 16.1118 8.00556 15.8657 7.75942C15.6195 7.51328 15.2857 7.375 14.9376 7.375C14.5895 7.375 14.2557 7.51328 14.0095 7.75942C13.7634 8.00556 13.6251 8.3394 13.6251 8.6875C13.6251 9.0356 13.7634 9.36944 14.0095 9.61558C14.2557 9.86172 14.5895 10 14.9376 10Z" fill="#0A8356" fill-opacity="0.6"/>
</svg>
