<svg width="62" height="62" viewBox="0 0 62 62" fill="none" xmlns="http://www.w3.org/2000/svg">
<path d="M5.8125 31C5.8125 17.0887 17.0887 5.8125 31 5.8125C44.9113 5.8125 56.1875 17.0887 56.1875 31C56.1875 44.9113 44.9113 56.1875 31 56.1875C17.0887 56.1875 5.8125 44.9113 5.8125 31ZM31 20.0208C30.4861 20.0208 29.9933 20.225 29.63 20.5883C29.2666 20.9517 29.0625 21.4445 29.0625 21.9583V29.0625H21.9583C21.4445 29.0625 20.9517 29.2666 20.5883 29.63C20.225 29.9933 20.0208 30.4861 20.0208 31C20.0208 31.5139 20.225 32.0067 20.5883 32.37C20.9517 32.7334 21.4445 32.9375 21.9583 32.9375H29.0625V40.0417C29.0625 40.5555 29.2666 41.0483 29.63 41.4117C29.9933 41.775 30.4861 41.9792 31 41.9792C31.5139 41.9792 32.0067 41.775 32.37 41.4117C32.7334 41.0483 32.9375 40.5555 32.9375 40.0417V32.9375H40.0417C40.5555 32.9375 41.0483 32.7334 41.4117 32.37C41.775 32.0067 41.9792 31.5139 41.9792 31C41.9792 30.4861 41.775 29.9933 41.4117 29.63C41.0483 29.2666 40.5555 29.0625 40.0417 29.0625H32.9375V21.9583C32.9375 21.4445 32.7334 20.9517 32.37 20.5883C32.0067 20.225 31.5139 20.0208 31 20.0208Z" fill="#0A8356"/>
</svg>
