<svg width="36" height="36" viewBox="0 0 36 36" fill="none" xmlns="http://www.w3.org/2000/svg">
<path d="M29.2394 3.84402C29.5128 4.11749 29.6663 4.48836 29.6663 4.87506C29.6663 5.26176 29.5128 5.63262 29.2394 5.9061L22.9787 12.1667H29.5762C29.9316 12.1668 30.2747 12.2967 30.5411 12.5319C30.8075 12.7672 30.9788 13.0916 31.0229 13.4442C31.3776 16.2584 30.8111 19.1117 29.4083 21.5769C28.0054 24.0421 25.8418 25.9865 23.2412 27.119L23.7896 29.3138C23.8432 29.5287 23.8471 29.7531 23.8011 29.9697C23.7551 30.1864 23.6603 30.3898 23.5239 30.5644C23.3876 30.7389 23.2132 30.8802 23.0142 30.9773C22.8151 31.0745 22.5965 31.125 22.375 31.1251H13.625C13.4035 31.125 13.1849 31.0745 12.9858 30.9773C12.7867 30.8802 12.6124 30.7389 12.476 30.5644C12.3397 30.3898 12.2449 30.1864 12.1989 29.9697C12.1529 29.7531 12.1568 29.5287 12.2104 29.3138L12.7587 27.119C10.1582 25.9865 7.99452 24.0421 6.59169 21.5769C5.18885 19.1117 4.62237 16.2584 4.97707 13.4442C5.02114 13.0916 5.19246 12.7672 5.45884 12.5319C5.72523 12.2967 6.06835 12.1668 6.42373 12.1667H11.5629L19.8856 3.84402C20.0201 3.70473 20.1811 3.59363 20.359 3.5172C20.5369 3.44077 20.7283 3.40054 20.9219 3.39886C21.1155 3.39718 21.3076 3.43407 21.4868 3.5074C21.666 3.58073 21.8288 3.68901 21.9658 3.82594C22.1027 3.96287 22.211 4.12569 22.2843 4.30492C22.3576 4.48414 22.3945 4.67617 22.3929 4.86981C22.3912 5.06345 22.3509 5.25481 22.2745 5.43273C22.1981 5.61065 22.087 5.77157 21.9477 5.9061L15.6871 12.1667H18.8546L27.1773 3.84402C27.4508 3.57062 27.8216 3.41704 28.2083 3.41704C28.595 3.41704 28.9659 3.57062 29.2394 3.84402Z" fill="white"/>
</svg>
