<svg width="21" height="21" viewBox="0 0 21 21" fill="none" xmlns="http://www.w3.org/2000/svg">
<path d="M10 2H3C2.46957 2 1.96086 2.21071 1.58579 2.58579C1.21071 2.96086 1 3.46957 1 4V18C1 18.5304 1.21071 19.0391 1.58579 19.4142C1.96086 19.7893 2.46957 20 3 20H17C17.5304 20 18.0391 19.7893 18.4142 19.4142C18.7893 19.0391 19 18.5304 19 18V11" stroke="black" stroke-width="2" stroke-linecap="round" stroke-linejoin="round"/>
<path d="M16.375 1.62523C16.7728 1.2274 17.3124 1.00391 17.875 1.00391C18.4376 1.00391 18.9771 1.2274 19.375 1.62523C19.7728 2.02305 19.9963 2.56262 19.9963 3.12523C19.9963 3.68784 19.7728 4.2274 19.375 4.62523L10.362 13.6392C10.1245 13.8765 9.83118 14.0501 9.50897 14.1442L6.63597 14.9842C6.54992 15.0093 6.45871 15.0108 6.37188 14.9886C6.28505 14.9663 6.2058 14.9212 6.14242 14.8578C6.07904 14.7944 6.03386 14.7151 6.01162 14.6283C5.98937 14.5415 5.99087 14.4503 6.01597 14.3642L6.85597 11.4912C6.9505 11.1693 7.12451 10.8763 7.36197 10.6392L16.375 1.62523Z" stroke="black" stroke-width="2" stroke-linecap="round" stroke-linejoin="round"/>
</svg>
