<svg width="24" height="24" viewBox="0 0 24 24" fill="none" xmlns="http://www.w3.org/2000/svg">
<g opacity="0.6">
<path d="M12 3H5C4.46957 3 3.96086 3.21071 3.58579 3.58579C3.21071 3.96086 3 4.46957 3 5V19C3 19.5304 3.21071 20.0391 3.58579 20.4142C3.96086 20.7893 4.46957 21 5 21H19C19.5304 21 20.0391 20.7893 20.4142 20.4142C20.7893 20.0391 21 19.5304 21 19V12" stroke="black" stroke-width="2" stroke-linecap="round" stroke-linejoin="round"/>
<path d="M18.375 2.62523C18.7728 2.2274 19.3124 2.00391 19.875 2.00391C20.4376 2.00391 20.9771 2.2274 21.375 2.62523C21.7728 3.02305 21.9963 3.56262 21.9963 4.12523C21.9963 4.68784 21.7728 5.2274 21.375 5.62523L12.362 14.6392C12.1245 14.8765 11.8312 15.0501 11.509 15.1442L8.63597 15.9842C8.54992 16.0093 8.45871 16.0108 8.37188 15.9886C8.28505 15.9663 8.2058 15.9212 8.14242 15.8578C8.07904 15.7944 8.03386 15.7151 8.01162 15.6283C7.98937 15.5415 7.99087 15.4503 8.01597 15.3642L8.85597 12.4912C8.9505 12.1693 9.12451 11.8763 9.36197 11.6392L18.375 2.62523Z" stroke="black" stroke-width="2" stroke-linecap="round" stroke-linejoin="round"/>
</g>
</svg>
