<svg width="25" height="24" viewBox="0 0 25 24" fill="none" xmlns="http://www.w3.org/2000/svg">
<path d="M25 7.05898C25 6.19609 24.3004 5.49648 23.4375 5.49648H20.7703C21.4605 4.81563 21.9023 3.92307 21.9023 2.82383C21.9023 1.47031 21.125 0 18.943 0C16.0719 0 13.6734 3.05703 12.5465 4.7707C11.4187 3.05742 8.94688 0.000390597 6.07617 0.000390597C3.89414 0.000390597 3.1168 1.4707 3.1168 2.82422C3.1168 3.92305 3.5707 4.81602 4.275 5.49687H1.5625C0.699609 5.49687 0 6.19648 0 7.05937V11.7363H1.57617V21.9062C1.57617 22.7691 2.27576 23.4688 3.13867 23.4688H21.8809C22.7437 23.4688 23.4434 22.7691 23.4434 21.9062V11.7359H25V7.05898H25ZM18.943 1.56289C19.909 1.56289 20.3398 1.96877 20.3398 2.82424C20.3398 4.55979 18.4027 5.49609 16.5809 5.49609H13.9359C15.0461 3.84727 17 1.56289 18.943 1.56289ZM6.07615 1.56291C8.01951 1.56291 10.0472 3.84729 11.1574 5.49573H8.51167C6.6898 5.49573 4.67925 4.53518 4.67925 2.79963C4.67925 1.94456 5.11011 1.56291 6.07615 1.56291ZM23.4375 10.1734H13.2812V7.05898H23.4375V10.1734ZM1.56248 7.05898H11.7187V10.1734H1.56248V7.05898ZM3.13865 11.7359H11.7187V21.9059H3.13865V11.7359ZM21.8812 21.9059H13.2812V11.7359H21.8812V21.9059Z" fill="#0A8356" fill-opacity="0.6"/>
</svg>
