<svg width="32" height="32" viewBox="0 0 32 32" fill="none" xmlns="http://www.w3.org/2000/svg">
<path d="M13.8144 5.90715C11.4144 8.30875 10.9888 12.1152 11.0592 14.9952C11.0638 15.1596 11.0049 15.3196 10.8946 15.4417C10.7844 15.5639 10.6313 15.6389 10.4672 15.6512C8.02564 15.8144 5.04324 16.304 2.58564 17.6128C1.76324 18.0528 1.46084 18.888 1.65764 19.6496C1.84964 20.376 2.46564 20.9696 3.30244 21.1264C4.47727 21.3417 5.64037 21.6167 6.78724 21.9504C7.33764 22.1168 7.83044 22.2944 8.23044 22.4784C8.64484 22.6672 8.90244 22.8384 9.03364 22.9696C9.16484 23.1008 9.33444 23.3584 9.52324 23.7712C9.70724 24.1712 9.88324 24.664 10.0512 25.216C10.384 26.3168 10.6608 27.5904 10.8704 28.6992C11.0272 29.536 11.6208 30.1552 12.3456 30.344C13.1088 30.544 13.944 30.2416 14.3824 29.416C15.6912 26.9616 16.1824 23.9792 16.3472 21.5376C16.3595 21.3735 16.4345 21.2204 16.5567 21.1102C16.6788 20.9999 16.8388 20.941 17.0032 20.9456C19.8832 21.016 23.6912 20.5936 26.0912 18.1904C27.5184 16.7632 28.2288 14.8592 28.5536 12.9888C28.88 11.112 28.832 9.20155 28.6864 7.67675C28.5854 6.55345 28.0932 5.50126 27.2959 4.70361C26.4985 3.90596 25.4465 3.41345 24.3232 3.31195C22.7984 3.16635 20.888 3.11995 19.0144 3.44475C17.1424 3.76955 15.24 4.47995 13.8144 5.90715ZM21.2 7.19835C21.5183 7.19835 21.8235 7.32478 22.0486 7.54983C22.2736 7.77487 22.4 8.08009 22.4 8.39836C22.4 8.71661 22.2736 9.02184 22.0486 9.24688C21.8235 9.47193 21.5183 9.59835 21.2 9.59835C20.8818 9.59835 20.5766 9.47193 20.3515 9.24688C20.1265 9.02184 20 8.71661 20 8.39836C20 8.08009 20.1265 7.77487 20.3515 7.54983C20.5766 7.32478 20.8818 7.19835 21.2 7.19835Z" fill="#1198C9"/>
</svg>
