<svg width="30" height="31" viewBox="0 0 30 31" fill="none" xmlns="http://www.w3.org/2000/svg">
<path d="M14.5273 2.11829C14.871 1.9339 15.2982 1.96528 15.6143 2.21106L26.8643 10.9611C27.1076 11.1505 27.25 11.4417 27.25 11.7501V25.5001C27.25 26.4284 26.881 27.3184 26.2246 27.9747C25.5682 28.6311 24.6783 29.0001 23.75 29.0001H6.25C5.32174 29.0001 4.43177 28.6311 3.77539 27.9747C3.11901 27.3184 2.75 26.4284 2.75 25.5001V11.7501C2.75 11.4417 2.89236 11.1505 3.13574 10.9611L14.3857 2.21106L14.5273 2.11829ZM4.75 12.2384V25.5001C4.75 25.898 4.90815 26.2794 5.18945 26.5607C5.47076 26.842 5.85218 27.0001 6.25 27.0001H10.25V15.5001L10.2549 15.3976C10.3062 14.8935 10.7323 14.5001 11.25 14.5001H18.75L18.8525 14.505C19.3567 14.5563 19.75 14.9824 19.75 15.5001V27.0001H23.75C24.1478 27.0001 24.5292 26.842 24.8105 26.5607C25.0919 26.2794 25.25 25.898 25.25 25.5001V12.2384L15 4.26673L4.75 12.2384ZM12.25 27.0001H17.75V16.5001H12.25V27.0001Z" fill="#0A8356"/>
</svg>
