<svg width="31" height="31" viewBox="0 0 31 31" fill="none" xmlns="http://www.w3.org/2000/svg">
<path d="M14.4165 3.25C20.4916 3.25 25.4165 8.17487 25.4165 14.25C25.4165 16.9275 24.4587 19.3806 22.8687 21.2881L27.6235 26.043L27.6919 26.1191C28.0122 26.5119 27.9897 27.0909 27.6235 27.457C27.2574 27.823 26.6784 27.8457 26.2856 27.5254L26.2095 27.457L21.4546 22.7021C19.5471 24.2922 17.094 25.25 14.4165 25.25C8.34137 25.25 3.4165 20.3251 3.4165 14.25C3.4165 8.17487 8.34137 3.25 14.4165 3.25ZM14.4165 5.25C9.44594 5.25 5.4165 9.27944 5.4165 14.25C5.4165 19.2206 9.44594 23.25 14.4165 23.25C19.3871 23.25 23.4165 19.2206 23.4165 14.25C23.4165 9.27944 19.3871 5.25 14.4165 5.25Z" fill="#0A8356"/>
</svg>
