<svg width="31" height="31" viewBox="0 0 31 31" fill="none" xmlns="http://www.w3.org/2000/svg">
<g clip-path="url(#clip0_158_2777)">
<path d="M15.3335 6.75C14.1732 6.75 13.0604 7.21094 12.2399 8.03141C11.4194 8.85188 10.9585 9.96468 10.9585 11.125C10.9585 12.2853 11.4194 13.3981 12.2399 14.2186C13.0604 15.0391 14.1732 15.5 15.3335 15.5C16.4938 15.5 17.6066 15.0391 18.4271 14.2186C19.2476 13.3981 19.7085 12.2853 19.7085 11.125C19.7085 9.96468 19.2476 8.85188 18.4271 8.03141C17.6066 7.21094 16.4938 6.75 15.3335 6.75ZM15.3335 9.25C15.8308 9.25 16.3077 9.44754 16.6593 9.79917C17.011 10.1508 17.2085 10.6277 17.2085 11.125C17.2085 11.6223 17.011 12.0992 16.6593 12.4508C16.3077 12.8025 15.8308 13 15.3335 13C14.8362 13 14.3593 12.8025 14.0077 12.4508C13.656 12.0992 13.4585 11.6223 13.4585 11.125C13.4585 10.6277 13.656 10.1508 14.0077 9.79917C14.3593 9.44754 14.8362 9.25 15.3335 9.25ZM7.2085 10.5C6.37969 10.5 5.58484 10.8292 4.99879 11.4153C4.41274 12.0013 4.0835 12.7962 4.0835 13.625C4.0835 14.8 4.746 15.8125 5.696 16.35C6.146 16.6 6.6585 16.75 7.2085 16.75C7.7585 16.75 8.271 16.6 8.721 16.35C9.1835 16.0875 9.571 15.7125 9.8585 15.2625C8.94785 14.0757 8.45559 12.6209 8.4585 11.125V10.775C8.0835 10.6 7.6585 10.5 7.2085 10.5ZM23.4585 10.5C23.0085 10.5 22.5835 10.6 22.2085 10.775V11.125C22.2085 12.625 21.721 14.075 20.8085 15.2625C20.9585 15.5 21.121 15.6875 21.3085 15.875C21.8848 16.4341 22.6556 16.7478 23.4585 16.75C24.0085 16.75 24.521 16.6 24.971 16.35C25.921 15.8125 26.5835 14.8 26.5835 13.625C26.5835 12.7962 26.2543 12.0013 25.6682 11.4153C25.0822 10.8292 24.2873 10.5 23.4585 10.5ZM15.3335 18C12.4085 18 6.5835 19.4625 6.5835 22.375V24.25H24.0835V22.375C24.0835 19.4625 18.2585 18 15.3335 18ZM6.221 18.6875C3.8085 18.975 0.333496 20.2 0.333496 22.375V24.25H4.0835V21.8375C4.0835 20.575 4.946 19.525 6.221 18.6875ZM24.446 18.6875C25.721 19.525 26.5835 20.575 26.5835 21.8375V24.25H30.3335V22.375C30.3335 20.2 26.8585 18.975 24.446 18.6875ZM15.3335 20.5C17.246 20.5 19.3835 21.125 20.621 21.75H10.046C11.2835 21.125 13.421 20.5 15.3335 20.5Z" fill="#0A8356"/>
</g>
<defs>
<clipPath id="clip0_158_2777">
<rect width="30" height="30" fill="white" transform="translate(0.333496 0.5)"/>
</clipPath>
</defs>
</svg>
