<svg width="30" height="31" viewBox="0 0 30 31" fill="none" xmlns="http://www.w3.org/2000/svg">
<path d="M19.0479 18.2578C20.5307 18.3315 21.9374 18.953 22.9922 20.0078C24.1174 21.133 24.75 22.6587 24.75 24.25V26.75C24.75 27.3023 24.3023 27.75 23.75 27.75C23.1977 27.75 22.75 27.3023 22.75 26.75V24.25C22.75 23.1891 22.3283 22.172 21.5781 21.4219C20.8748 20.7186 19.9369 20.3039 18.9482 20.2549L18.75 20.25H11.25C10.1891 20.25 9.17202 20.6717 8.42188 21.4219C7.67173 22.172 7.25 23.1891 7.25 24.25V26.75C7.25 27.3023 6.80228 27.75 6.25 27.75C5.69772 27.75 5.25 27.3023 5.25 26.75V24.25C5.25 22.6587 5.88259 21.133 7.00781 20.0078C8.13303 18.8826 9.6587 18.25 11.25 18.25H18.75L19.0479 18.2578ZM15 3.25C18.3137 3.25 21 5.93629 21 9.25C21 12.5637 18.3137 15.25 15 15.25C11.6863 15.25 9 12.5637 9 9.25C9 5.93629 11.6863 3.25 15 3.25ZM15 5.25C12.7909 5.25 11 7.04086 11 9.25C11 11.4591 12.7909 13.25 15 13.25C17.2091 13.25 19 11.4591 19 9.25C19 7.04086 17.2091 5.25 15 5.25Z" fill="#0A8356"/>
</svg>
