<svg width="36" height="36" viewBox="0 0 36 36" fill="none" xmlns="http://www.w3.org/2000/svg">
<path d="M26.8377 34.0417H29.2585C30.4835 34.0417 31.4897 33.0938 31.6356 31.898L34.0418 7.86462H26.7502V1.95837H23.8772V7.86462H16.6293L17.0668 11.2771C19.5606 11.9625 21.8939 13.2021 23.2939 14.573C25.3939 16.6438 26.8377 18.7875 26.8377 22.2875V34.0417ZM1.9585 32.5834V31.125H23.8772V32.5834C23.8772 33.3709 23.221 34.0417 22.3752 34.0417H3.41683C2.61475 34.0417 1.9585 33.3709 1.9585 32.5834ZM23.8772 22.375C23.8772 10.7084 1.9585 10.7084 1.9585 22.375H23.8772ZM1.9585 25.2917H23.8335V28.2084H1.9585V25.2917Z" fill="white"/>
</svg>
