<svg width="28" height="28" viewBox="0 0 28 28" fill="none" xmlns="http://www.w3.org/2000/svg">
<path d="M14.0001 4.95C14.5246 4.9385 14.9436 4.5075 14.9436 3.902V1.037C14.9436 0.4305 14.5246 0 14.0001 0C13.4756 0 13.0571 0.431 13.0571 1.0365V3.9015C13.0571 4.5075 13.4761 4.9615 14.0001 4.95ZM20.0101 7.431C20.3831 7.792 20.9886 7.792 21.4196 7.3725L23.4461 5.346C23.8771 4.915 23.8656 4.3095 23.5046 3.937C23.1431 3.564 22.5376 3.564 22.1066 3.995L20.0801 6.0215C19.6491 6.4525 19.6376 7.07 20.0101 7.431ZM7.99008 7.431C8.35108 7.0585 8.35108 6.4525 7.93208 6.0215L5.90558 3.995C5.46258 3.564 4.86858 3.5755 4.50758 3.9365C4.12358 4.298 4.12358 4.915 4.55408 5.3465L6.58108 7.3725C7.01208 7.792 7.64108 7.8035 7.99008 7.431ZM2.15508 18.6125H25.8106C26.2186 18.6125 26.5446 18.286 26.5446 17.867C26.5446 17.448 26.2181 17.133 25.8106 17.133H19.0786C19.8471 16.0965 20.3131 14.8155 20.3131 13.4295C20.3131 9.9815 17.4481 7.1045 14.0001 7.1045C10.5521 7.1045 7.68758 9.9815 7.68758 13.4295C7.68758 14.8155 8.15308 16.0965 8.92208 17.133H2.15508C1.73558 17.133 1.42108 17.448 1.42108 17.867C1.42108 18.286 1.73608 18.6125 2.15508 18.6125ZM23.5391 14.0925H26.4046C27.0101 14.0925 27.4411 13.662 27.4411 13.1375C27.4411 12.625 27.0101 12.206 26.4046 12.194H23.5396C22.9336 12.194 22.4796 12.625 22.4911 13.1375C22.5026 13.662 22.9336 14.0925 23.5391 14.0925ZM1.59608 14.0925H4.46108C5.06658 14.0925 5.52108 13.662 5.50958 13.1375C5.49758 12.625 5.06658 12.194 4.46108 12.194H1.59608C1.00208 12.194 0.559082 12.625 0.559082 13.1375C0.559082 13.662 1.00208 14.0925 1.59608 14.0925ZM3.19158 22.3625C3.51758 22.3625 3.77408 22.0945 3.77408 21.768C3.77408 21.442 3.51758 21.174 3.19158 21.174C2.86558 21.174 2.59758 21.442 2.59758 21.768C2.59758 22.0945 2.86558 22.3625 3.19158 22.3625ZM8.11858 22.362C8.43258 22.362 8.70058 22.094 8.70058 21.7675C8.70058 21.4415 8.43308 21.1735 8.11858 21.1735C7.78058 21.1735 7.51258 21.4415 7.51258 21.7675C7.51258 22.094 7.78058 22.362 8.11858 22.362ZM22.8756 22.3615C23.2016 22.3615 23.4576 22.0935 23.4576 21.767C23.4576 21.441 23.2016 21.173 22.8756 21.173C22.5376 21.173 22.2816 21.441 22.2816 21.767C22.2816 22.0935 22.5376 22.3615 22.8756 22.3615ZM13.0336 22.361C13.3596 22.361 13.6161 22.093 13.6161 21.7665C13.6161 21.4405 13.3596 21.1725 13.0336 21.1725C12.6956 21.1725 12.4396 21.4405 12.4396 21.7665C12.4396 22.093 12.6956 22.361 13.0336 22.361ZM17.9601 22.3605C18.2751 22.3605 18.5426 22.0925 18.5426 21.766C18.5426 21.44 18.2746 21.172 17.9601 21.172C17.6226 21.172 17.3551 21.44 17.3551 21.766C17.3551 22.0925 17.6226 22.3605 17.9601 22.3605ZM26.3116 25.19C26.6261 25.19 26.8941 24.922 26.8941 24.5845C26.8941 24.2695 26.6261 24.002 26.3111 24.002C25.9736 24.002 25.7176 24.27 25.7176 24.5845C25.7176 24.922 25.9736 25.19 26.3116 25.19ZM21.3966 25.19C21.7106 25.19 21.9786 24.922 21.9786 24.5845C21.9786 24.2695 21.7106 24.002 21.3961 24.002C21.0586 24.002 20.7906 24.27 20.7906 24.5845C20.7906 24.922 21.0591 25.19 21.3966 25.19ZM16.4691 25.19C16.7836 25.19 17.0511 24.922 17.0511 24.5845C17.0511 24.2695 16.7836 24.002 16.4691 24.002C16.1311 24.002 15.8751 24.27 15.8751 24.5845C15.8751 24.922 16.1311 25.19 16.4691 25.19ZM11.5541 25.19C11.8681 25.19 12.1361 24.922 12.1361 24.5845C12.1361 24.2695 11.8681 24.002 11.5536 24.002C11.2161 24.002 10.9486 24.27 10.9486 24.5845C10.9486 24.922 11.2166 25.19 11.5541 25.19ZM6.62658 25.19C6.94108 25.19 7.20908 24.922 7.20908 24.5845C7.20908 24.2695 6.94108 24.002 6.62658 24.002C6.28858 24.002 6.03258 24.27 6.03258 24.5845C6.03258 24.922 6.28858 25.19 6.62658 25.19ZM1.71158 25.19C2.02558 25.19 2.29358 24.922 2.29358 24.5845C2.29358 24.2695 2.02608 24.002 1.71158 24.002C1.37358 24.002 1.10558 24.27 1.10558 24.5845C1.10558 24.922 1.37358 25.19 1.71158 25.19ZM19.9056 28C20.2196 28 20.4876 27.732 20.4876 27.406C20.4876 27.08 20.2196 26.8235 19.9056 26.8235C19.5676 26.8235 19.3116 27.08 19.3116 27.406C19.3116 27.732 19.5676 28 19.9056 28ZM24.8206 28C25.1466 28 25.4146 27.732 25.4146 27.406C25.4146 27.08 25.1466 26.8235 24.8206 26.8235C24.4946 26.8235 24.2266 27.08 24.2266 27.406C24.2266 27.732 24.4946 28 24.8206 28ZM14.9786 28C15.3046 28 15.5726 27.732 15.5726 27.406C15.5726 27.08 15.3046 26.8235 14.9786 26.8235C14.6526 26.8235 14.3846 27.08 14.3846 27.406C14.3846 27.732 14.6526 28 14.9786 28ZM10.0636 28C10.3781 28 10.6461 27.732 10.6461 27.406C10.6461 27.08 10.3781 26.8235 10.0636 26.8235C9.72558 26.8235 9.46958 27.08 9.46958 27.406C9.46958 27.732 9.72558 28 10.0636 28ZM5.13658 28C5.46258 28 5.73058 27.732 5.73058 27.406C5.73058 27.08 5.46258 26.8235 5.13658 26.8235C4.81058 26.8235 4.54258 27.08 4.54258 27.406C4.54258 27.732 4.81058 28 5.13658 28Z" fill="#FEE500"/>
</svg>
