<svg width="28" height="28" viewBox="0 0 28 28" fill="none" xmlns="http://www.w3.org/2000/svg">
<path d="M14.0001 4.47931C12.1562 4.47923 10.352 5.01459 8.80658 6.02034C7.26115 7.0261 6.04103 8.45898 5.29442 10.1449C4.5478 11.8309 4.30682 13.6974 4.60075 15.5177C4.89468 17.338 5.71087 19.0338 6.95017 20.3991C8.18948 21.7644 9.79858 22.7404 11.582 23.2086C13.3655 23.6769 15.2465 23.6172 16.9966 23.0367C18.7468 22.4563 20.2907 21.3802 21.4409 19.939C22.5912 18.4979 23.2981 16.7538 23.476 14.9185C23.4861 14.8089 23.4637 14.6987 23.4116 14.6017C23.3594 14.5047 23.2799 14.4253 23.1828 14.3733C23.0858 14.3213 22.9755 14.2991 22.8659 14.3094C22.7563 14.3197 22.6522 14.3621 22.5665 14.4312C21.9877 14.8996 21.3212 15.2479 20.6062 15.4557C19.8911 15.6634 19.1418 15.7265 18.4021 15.6412C17.6624 15.5559 16.9471 15.324 16.2981 14.9589C15.6491 14.5939 15.0794 14.1031 14.6224 13.5153C14.1653 12.9274 13.8301 12.2544 13.6362 11.5354C13.4424 10.8165 13.3939 10.0661 13.4936 9.32816C13.5932 8.59024 13.839 7.8796 14.2166 7.23781C14.5942 6.59603 15.0959 6.03598 15.6926 5.59043C15.7811 5.52429 15.8481 5.43343 15.8851 5.3293C15.9221 5.22517 15.9274 5.11242 15.9005 5.00524C15.8736 4.89807 15.8155 4.80126 15.7337 4.72701C15.6518 4.65275 15.5498 4.60437 15.4405 4.58796C14.9638 4.51574 14.4823 4.47942 14.0001 4.47931Z" fill="#B8E2FB"/>
</svg>
