<svg width="22" height="22" viewBox="0 0 22 22" fill="none" xmlns="http://www.w3.org/2000/svg">
<path d="M12.625 13.8752V4.87523M12.625 13.8752L18.817 17.4134C18.9881 17.5111 19.1818 17.5621 19.3788 17.5615C19.5758 17.5608 19.7692 17.5084 19.9396 17.4096C20.11 17.3107 20.2514 17.1688 20.3498 16.9981C20.4481 16.8274 20.4999 16.6339 20.5 16.4369V2.3136C20.4999 2.11659 20.4481 1.92306 20.3498 1.75235C20.2514 1.58165 20.11 1.43976 19.9396 1.3409C19.7692 1.24203 19.5758 1.18964 19.3788 1.18897C19.1818 1.18831 18.9881 1.23939 18.817 1.3371L12.625 4.87523M12.625 13.8752H9.25M12.625 4.87523H5.875C4.68153 4.87523 3.53693 5.34933 2.69302 6.19325C1.84911 7.03716 1.375 8.18175 1.375 9.37523C1.375 10.5687 1.84911 11.7133 2.69302 12.5572C3.53693 13.4011 4.68153 13.8752 5.875 13.8752M9.25 13.8752V18.9377C9.25 19.3853 9.07221 19.8145 8.75574 20.131C8.43928 20.4474 8.01005 20.6252 7.5625 20.6252C7.11495 20.6252 6.68572 20.4474 6.36926 20.131C6.05279 19.8145 5.875 19.3853 5.875 18.9377V13.8752M9.25 13.8752H5.875" stroke="#0A8356" stroke-opacity="0.6" stroke-width="2" stroke-linecap="round" stroke-linejoin="round"/>
</svg>
