<svg width="16" height="20" viewBox="0 0 16 20" fill="none" xmlns="http://www.w3.org/2000/svg">
<path d="M1 2C1 1.73478 1.10536 1.48043 1.29289 1.29289C1.48043 1.10536 1.73478 1 2 1H8V6C8 6.53043 8.21071 7.03914 8.58579 7.41421C8.96086 7.78929 9.46957 8 10 8H15V18C15 18.2652 14.8946 18.5196 14.7071 18.7071C14.5196 18.8946 14.2652 19 14 19H2C1.73478 19 1.48043 18.8946 1.29289 18.7071C1.10536 18.5196 1 18.2652 1 18V2ZM15.998 7.54C16.0023 7.48631 15.9979 7.43229 15.985 7.38C15.9314 6.9363 15.7307 6.52333 15.415 6.207L9.793 0.586C9.47707 0.270107 9.06448 0.0690895 8.621 0.0150001C8.56807 0.00186092 8.51335 -0.00253042 8.459 0.00200009L8.38 0H2C1.46957 0 0.960859 0.210714 0.585786 0.585786C0.210714 0.960859 0 1.46957 0 2V18C0 18.5304 0.210714 19.0391 0.585786 19.4142C0.960859 19.7893 1.46957 20 2 20H14C14.5304 20 15.0391 19.7893 15.4142 19.4142C15.7893 19.0391 16 18.5304 16 18V7.621L15.998 7.541M9 1.217C9.03 1.241 9.05867 1.26667 9.086 1.294L14.707 6.915C14.7337 6.94167 14.7593 6.97033 14.784 7.001H10C9.73478 7.001 9.48043 6.89564 9.29289 6.70811C9.10536 6.52057 9 6.26622 9 6.001V1.217Z" fill="black"/>
</svg>
