<svg width="27" height="28" viewBox="0 0 27 28" fill="none" xmlns="http://www.w3.org/2000/svg">
<path d="M20.25 9.69497C19.845 9.21664 19.4288 8.7383 18.99 8.2833L18.6638 7.9683L18.8213 7.8283C19.3714 7.33855 19.7635 6.68557 19.9445 5.95748C20.1256 5.22939 20.0869 4.46122 19.8338 3.75664C19.4669 2.9621 18.886 2.29472 18.1614 1.83511C17.4367 1.37551 16.5992 1.14333 15.75 1.16664V3.49997C16.1503 3.49419 16.5448 3.59926 16.8928 3.80435C17.2409 4.00943 17.5299 4.30709 17.73 4.66664C17.9213 5.1333 17.73 5.64664 17.2013 6.19497C17.1225 6.2883 17.0325 6.34664 16.9538 6.4283C13.5788 3.61664 9.8775 2.02997 8.06625 3.9083C7.87717 4.10999 7.72134 4.34253 7.605 4.59664V4.7133L7.4025 5.33164L2.44125 20.615C2.25359 21.1909 2.20095 21.8049 2.28768 22.4062C2.37442 23.0074 2.59804 23.5786 2.94002 24.0723C3.28199 24.5661 3.73249 24.9682 4.25419 25.2455C4.77589 25.5228 5.35379 25.6671 5.94 25.6666C6.32279 25.663 6.70256 25.596 7.065 25.4683L22.5 20.16C22.6897 20.0867 22.8568 19.9618 22.9838 19.7983L23.22 19.5883C24.8288 17.9083 23.7938 14.6766 21.6338 11.5383C22.9163 10.7621 24.3931 10.4005 25.875 10.5V8.16664C23.892 8.05349 21.9247 8.58801 20.25 9.69497ZM6.4125 23.2516C6.15714 23.3393 5.8833 23.3516 5.62157 23.2872C5.35984 23.2229 5.12052 23.0843 4.93031 22.8871C4.74011 22.6898 4.60651 22.4416 4.54443 22.1702C4.48235 21.8988 4.49423 21.6148 4.57875 21.35L6.10875 16.5666C7.20066 18.726 8.87845 20.5065 10.935 21.6883L6.4125 23.2516ZM14.2875 20.5333C12.5873 20.0664 11.0363 19.1417 9.7917 17.853C8.54706 16.5643 7.65297 14.9574 7.2 13.195L8.325 9.69497L8.3925 9.79997C8.51625 10.0566 8.67375 10.325 8.83125 10.5933C8.98875 10.8616 9.01125 10.9316 9.12375 11.1066C9.23625 11.2816 9.495 11.6666 9.6975 11.9583C9.9 12.25 9.91125 12.285 10.035 12.4483C10.1588 12.6116 10.5188 13.09 10.7775 13.405L11.1038 13.8133C11.4863 14.2683 11.8913 14.7116 12.3188 15.1666C12.7463 15.6216 13.0838 15.9133 13.4438 16.3333L13.815 16.66L14.6925 17.395L15.1088 17.7216C15.4238 17.955 15.7275 18.1883 16.0425 18.3983L16.3913 18.6316C16.7963 18.8883 17.2013 19.1333 17.595 19.3433H17.6513L14.2875 20.5333ZM21.6112 17.9316H21.5438C20.7675 18.375 17.5388 17.2666 13.905 13.4866C13.5225 13.09 13.1625 12.705 12.8363 12.32L12.51 11.9116L11.9138 11.165L11.5875 10.6983C11.4413 10.4766 11.2838 10.2666 11.1488 10.0566L10.8563 9.56664L10.53 9.0183C10.44 8.85497 10.3725 8.7033 10.2938 8.55164C10.215 8.39997 10.125 8.2483 10.0575 8.08497C9.99636 7.94862 9.94375 7.80833 9.9 7.66497C9.84375 7.5133 9.77625 7.36164 9.73125 7.22164C9.68625 7.08164 9.675 6.99997 9.64125 6.85997C9.6075 6.71997 9.585 6.6033 9.5625 6.48664C9.55616 6.38563 9.55616 6.28431 9.5625 6.1833C9.55166 6.09031 9.55166 5.9963 9.5625 5.9033L9.68625 5.54164C10.0913 5.12164 12.195 5.54164 15.0075 7.7583C14.531 7.98208 14.0212 8.12016 13.5 8.16664V10.5C14.695 10.4287 15.8544 10.0519 16.875 9.4033L17.415 9.93997C17.8875 10.43 18.3263 10.9316 18.7425 11.4333C18.0985 12.6409 17.861 14.0367 18.0675 15.4L20.3175 14.945C20.2518 14.5121 20.2518 14.0712 20.3175 13.6383C20.6619 14.1776 20.9665 14.7431 21.2288 15.33C21.8588 16.87 21.8138 17.7333 21.6112 17.9316Z" fill="white"/>
</svg>
