<svg width="34" height="34" viewBox="0 0 34 34" fill="none" xmlns="http://www.w3.org/2000/svg">
<g clip-path="url(#clip0_316_2953)">
<path d="M17 0C7.61122 0 0 7.61122 0 17C0 26.3893 7.61122 34 17 34C26.3893 34 34 26.3893 34 17C34 7.61122 26.3893 0 17 0ZM17 31.9085C8.79803 31.9085 2.125 25.202 2.125 16.9999C2.125 8.79796 8.79803 2.12493 17 2.12493C25.202 2.12493 31.875 8.798 31.875 16.9999C31.875 25.2019 25.202 31.9085 17 31.9085ZM24.4375 15.9375H18.0625V9.5625C18.0625 8.976 17.5865 8.5 17 8.5C16.4135 8.5 15.9375 8.976 15.9375 9.5625V15.9375H9.5625C8.976 15.9375 8.5 16.4135 8.5 17C8.5 17.5865 8.976 18.0625 9.5625 18.0625H15.9375V24.4375C15.9375 25.024 16.4135 25.5 17 25.5C17.5865 25.5 18.0625 25.024 18.0625 24.4375V18.0625H24.4375C25.024 18.0625 25.5 17.5865 25.5 17C25.5 16.4135 25.024 15.9375 24.4375 15.9375Z" fill="black"/>
</g>
<defs>
<clipPath id="clip0_316_2953">
<rect width="34" height="34" fill="white"/>
</clipPath>
</defs>
</svg>
