<svg width="24" height="24" viewBox="0 0 24 24" fill="none" xmlns="http://www.w3.org/2000/svg">
<path d="M12 21C16.9706 21 21 16.9706 21 12C21 7.02944 16.9706 3 12 3C7.02944 3 3 7.02944 3 12C3 16.9706 7.02944 21 12 21Z" stroke="black" stroke-width="2"/>
<path d="M12 18.5C12.2761 18.5 12.5 18.2761 12.5 18C12.5 17.7239 12.2761 17.5 12 17.5C11.7239 17.5 11.5 17.7239 11.5 18C11.5 18.2761 11.7239 18.5 12 18.5Z" fill="black" stroke="black"/>
<path d="M12 16V14.581C12 13.637 12.604 12.799 13.5 12.5C13.9371 12.3549 14.3173 12.0757 14.5866 11.7021C14.8559 11.3285 15.0005 10.8795 15 10.419V9.906C15 8.3 13.7 7 12.094 7H12C11.2044 7 10.4413 7.31607 9.87868 7.87868C9.31607 8.44129 9 9.20435 9 10" stroke="black" stroke-width="2"/>
</svg>
