<svg width="58" height="58" viewBox="0 0 58 58" fill="none" xmlns="http://www.w3.org/2000/svg">
<path fill-rule="evenodd" clip-rule="evenodd" d="M0 9.6667C0 8.12844 0.61107 6.65319 1.69878 5.56548C2.78649 4.47777 4.26174 3.8667 5.8 3.8667H22.0671L29.8004 11.6H52.2C53.7383 11.6 55.2135 12.2111 56.3012 13.2988C57.3889 14.3865 58 15.8618 58 17.4V48.3334C58 49.8716 57.3889 51.3469 56.3012 52.4346C55.2135 53.5223 53.7383 54.1334 52.2 54.1334H5.8C4.26174 54.1334 2.78649 53.5223 1.69878 52.4346C0.61107 51.3469 0 49.8716 0 48.3334L0 9.6667ZM27.0667 42.5334V34.8H19.3333V30.9334H27.0667V23.2H30.9333V30.9334H38.6667V34.8H30.9333V42.5334H27.0667Z" fill="#0A8356"/>
</svg>
