<svg width="42" height="43" viewBox="0 0 42 43" fill="none" xmlns="http://www.w3.org/2000/svg">
<path fill-rule="evenodd" clip-rule="evenodd" d="M31.5 5.3125C31.1519 5.3125 30.8181 5.17422 30.5719 4.92808C30.3258 4.68194 30.1875 4.3481 30.1875 4C30.1875 3.6519 30.3258 3.31806 30.5719 3.07192C30.8181 2.82578 31.1519 2.6875 31.5 2.6875H38.5C38.7594 2.68773 39.013 2.76483 39.2286 2.90906C39.4442 3.0533 39.6123 3.2582 39.7115 3.49788C39.8107 3.73757 39.8367 4.00129 39.7862 4.25574C39.7356 4.51019 39.6108 4.74395 39.4275 4.9275L34.6675 9.6875H38.5C38.8481 9.6875 39.1819 9.82578 39.4281 10.0719C39.6742 10.3181 39.8125 10.6519 39.8125 11C39.8125 11.3481 39.6742 11.6819 39.4281 11.9281C39.1819 12.1742 38.8481 12.3125 38.5 12.3125H31.5C31.2406 12.3123 30.987 12.2352 30.7714 12.0909C30.5558 11.9467 30.3877 11.7418 30.2885 11.5021C30.1893 11.2624 30.1633 10.9987 30.2138 10.7443C30.2644 10.4898 30.3892 10.2561 30.5725 10.0725L35.3325 5.3125H31.5ZM23.625 15.8125C23.2769 15.8125 22.9431 15.6742 22.6969 15.4281C22.4508 15.1819 22.3125 14.8481 22.3125 14.5C22.3125 14.1519 22.4508 13.8181 22.6969 13.5719C22.9431 13.3258 23.2769 13.1875 23.625 13.1875H28.875C29.1344 13.1877 29.388 13.2648 29.6036 13.4091C29.8192 13.5533 29.9873 13.7582 30.0865 13.9979C30.1857 14.2376 30.2117 14.5013 30.1612 14.7557C30.1106 15.0102 29.9858 15.2439 29.8025 15.4275L26.7925 18.4375H28.875C29.2231 18.4375 29.5569 18.5758 29.8031 18.8219C30.0492 19.0681 30.1875 19.4019 30.1875 19.75C30.1875 20.0981 30.0492 20.4319 29.8031 20.6781C29.5569 20.9242 29.2231 21.0625 28.875 21.0625H23.625C23.3656 21.0623 23.112 20.9852 22.8964 20.8409C22.6808 20.6967 22.5127 20.4918 22.4135 20.2521C22.3143 20.0124 22.2883 19.7487 22.3388 19.4943C22.3894 19.2398 22.5142 19.0061 22.6975 18.8225L25.7075 15.8125H23.625Z" fill="black"/>
<path opacity="0.5" d="M21 39C30.6652 39 38.5 31.1652 38.5 21.5C38.5 20.6898 37.2855 20.555 36.8672 21.2498C35.9752 22.7273 34.7586 23.9826 33.3095 24.9203C31.8605 25.8581 30.2171 26.4538 28.5037 26.6623C26.7904 26.8709 25.052 26.6868 23.4203 26.124C21.7887 25.5612 20.3065 24.6345 19.086 23.414C17.8655 22.1935 16.9388 20.7113 16.376 19.0797C15.8132 17.448 15.6291 15.7096 15.8377 13.9963C16.0462 12.2829 16.6419 10.6395 17.5797 9.19048C18.5174 7.74145 19.7727 6.52482 21.2502 5.63275C21.945 5.21275 21.8102 4 21 4C11.3348 4 3.5 11.8348 3.5 21.5C3.5 31.1652 11.3348 39 21 39Z" fill="white"/>
</svg>
