<svg width="38" height="38" viewBox="0 0 38 38" fill="none" xmlns="http://www.w3.org/2000/svg">
<mask id="mask0_158_2809" style="mask-type:luminance" maskUnits="userSpaceOnUse" x="0" y="0" width="38" height="38">
<path d="M21.625 10.4745L5.875 17.5642H32.125L27.75 11.3719" stroke="white" stroke-width="2" stroke-linecap="round" stroke-linejoin="round"/>
<path d="M25.125 13.1667C27.058 13.1667 28.625 11.5595 28.625 9.57693C28.625 7.59437 27.058 5.98718 25.125 5.98718C23.192 5.98718 21.625 7.59437 21.625 9.57693C21.625 11.5595 23.192 13.1667 25.125 13.1667Z" fill="black" stroke="white" stroke-width="2"/>
<path d="M26.875 5.98718L28.625 1.5" stroke="white" stroke-width="2" stroke-linecap="round"/>
<path d="M6.3125 22.1024C5.78575 22.3722 5.29633 22.6582 4.84425 22.9604C2.74075 24.3675 1.5 26.1005 1.5 27.9743C1.5 32.6832 9.33475 36.5 19 36.5C28.6652 36.5 36.5 32.6832 36.5 27.9743C36.5 26.0538 35.198 24.2832 33 22.8581" stroke="white" stroke-width="2"/>
<path d="M5.875 17.6539H32.125V28.4232H5.875V17.6539Z" fill="white" stroke="white" stroke-width="2" stroke-linecap="round" stroke-linejoin="round"/>
<path d="M5.875 17.6539H33" stroke="white" stroke-width="2"/>
</mask>
<g mask="url(#mask0_158_2809)">
<path d="M-2 -2.08972H40V40.9872H-2V-2.08972Z" fill="white"/>
</g>
</svg>
