<svg width="43" height="43" viewBox="0 0 43 43" fill="none" xmlns="http://www.w3.org/2000/svg">
<path d="M10.475 15.1562C11.9625 14.3688 13.5013 13.7708 15.0915 13.3625C16.6817 12.9542 18.3074 12.75 19.9688 12.75C20.8438 12.75 21.7117 12.8083 22.5727 12.925C23.4337 13.0417 24.2866 13.2167 25.1312 13.45C26.5896 13.8583 27.7055 14.1354 28.479 14.2812C29.2525 14.4271 30.0762 14.5 30.95 14.5H32.5688L33.3125 7.5H9.6875L10.475 15.1562ZM12.7062 39C11.8021 39 11.0222 38.7083 10.3665 38.125C9.71083 37.5417 9.33867 36.7979 9.25 35.8938L5.75 4H37.25L33.75 35.8938C33.6625 36.7979 33.2903 37.5417 32.6335 38.125C31.9767 38.7083 31.1967 39 30.2937 39H12.7062Z" fill="#D9FFFE"/>
</svg>
