<svg width="26" height="36" viewBox="0 0 26 36" fill="none" xmlns="http://www.w3.org/2000/svg">
<path fill-rule="evenodd" clip-rule="evenodd" d="M12.3158 2.53355C12.3158 3.20548 12.532 3.8499 12.917 4.32503C13.3019 4.80017 13.824 5.06709 14.3684 5.06709H18.9923L12.9165 12.5664C12.6297 12.9208 12.4345 13.3722 12.3555 13.8635C12.2765 14.3548 12.3173 14.864 12.4726 15.3268C12.628 15.7895 12.891 16.185 13.2285 16.4633C13.5659 16.7416 13.9626 16.8902 14.3684 16.8903H23.9474C24.2169 16.8903 24.4838 16.8248 24.7329 16.6975C24.9819 16.5701 25.2082 16.3835 25.3988 16.1482C25.5894 15.913 25.7406 15.6337 25.8438 15.3263C25.9469 15.0189 26 14.6895 26 14.3568C26 14.0241 25.9469 13.6946 25.8438 13.3872C25.7406 13.0798 25.5894 12.8005 25.3988 12.5653C25.2082 12.33 24.9819 12.1434 24.7329 12.0161C24.4838 11.8887 24.2169 11.8232 23.9474 11.8232H19.3235L25.3993 4.32392C25.686 3.9695 25.8813 3.51811 25.9603 3.02679C26.0393 2.53547 25.9985 2.02626 25.8432 1.56352C25.6878 1.10078 25.4247 0.705277 25.0873 0.426986C24.7499 0.148694 24.3532 0.000106827 23.9474 0H14.3684C13.824 0 13.3019 0.266926 12.917 0.742059C12.532 1.21719 12.3158 1.86161 12.3158 2.53355ZM2.05263 13.5122C1.50824 13.5122 0.986145 13.2453 0.601202 12.7702C0.216259 12.2951 0 11.6506 0 10.9787C0 10.3068 0.216259 9.66234 0.601202 9.18721C0.986145 8.71208 1.50824 8.44515 2.05263 8.44515H8.89474C9.30045 8.44559 9.69695 8.59442 10.0342 8.87284C10.3714 9.15126 10.6342 9.54678 10.7894 10.0095C10.9446 10.4721 10.9853 10.9812 10.9062 11.4724C10.8272 11.9635 10.632 12.4148 10.3453 12.7691L7.00905 16.8903H8.89474C9.43913 16.8903 9.96122 17.1572 10.3462 17.6324C10.7311 18.1075 10.9474 18.7519 10.9474 19.4239C10.9474 20.0958 10.7311 20.7402 10.3462 21.2153C9.96122 21.6905 9.43913 21.9574 8.89474 21.9574H2.05263C1.64692 21.957 1.25042 21.8081 0.913196 21.5297C0.575974 21.2513 0.313162 20.8558 0.157951 20.3931C0.00274139 19.9304 -0.0379045 19.4214 0.0411475 18.9302C0.1202 18.439 0.315404 17.9878 0.602105 17.6335L3.93968 13.5122H2.05263ZM13 25.3355C12.4556 25.3355 11.9335 25.0685 11.5486 24.5934C11.1636 24.1183 10.9474 23.4739 10.9474 22.8019C10.9474 22.13 11.1636 21.4856 11.5486 21.0104C11.9335 20.5353 12.4556 20.2684 13 20.2684H18.4737C18.8794 20.2688 19.2759 20.4176 19.6131 20.6961C19.9503 20.9745 20.2132 21.37 20.3684 21.8327C20.5236 22.2953 20.5642 22.8044 20.4852 23.2956C20.4061 23.7867 20.2109 24.238 19.9242 24.5923L17.9551 27.0245H18.4737C19.0181 27.0245 19.5402 27.2914 19.9251 27.7666C20.3101 28.2417 20.5263 28.8861 20.5263 29.558C20.5263 30.23 20.3101 30.8744 19.9251 31.3495C19.5402 31.8247 19.0181 32.0916 18.4737 32.0916H13C12.5943 32.0911 12.1978 31.9423 11.8606 31.6639C11.5233 31.3855 11.2605 30.99 11.1053 30.5273C10.9501 30.0646 10.9095 29.5555 10.9885 29.0644C11.0676 28.5732 11.2628 28.122 11.5495 27.7677L13.5186 25.3355H13Z" fill="black"/>
</svg>
